<svg xmlns="http://www.w3.org/2000/svg" enable-background="new 0 0 100 100" viewBox="0 0 100 100"><path d="M82.98,92.74l-0.43-3.24c-1.07-8-3.35-15.77-6.79-23.08c-2.01-4.27-4.42-8.38-7.16-12.22l-5.34-7.48l10.6-26.99c0.17-0.44,0.18-0.92,0.04-1.36l-4-12C69.63,5.55,68.86,5,68,5h-6c-1.1,0-2,0.9-2,2v10.14c-4.24,0.61-7.88,3.13-10,6.65c-2.12-3.53-5.76-6.04-10-6.65V7c0-1.1-0.9-2-2-2h-6c-0.86,0-1.62,0.55-1.9,1.37l-4,12c-0.15,0.44-0.14,0.93,0.04,1.36l10.6,26.99L31.4,54.2c-2.74,3.84-5.15,7.95-7.16,12.22c-3.44,7.31-5.72,15.07-6.79,23.08l-0.43,3.24c-0.08,0.57,0.1,1.15,0.48,1.58S18.42,95,19,95h62c0.58,0,1.12-0.25,1.5-0.68S83.06,93.31,82.98,92.74z M66.56,9l2.67,8H64V9H66.56z M48,31c0,1.1,0.9,2,2,2s2-0.9,2-2c0-5.51,4.49-10,10-10h7.07l-9.43,24h-3.66h-0.01H44.03h-0.01h-3.66l-9.43-24H38C43.51,21,48,25.49,48,31z M33.44,9H36v8h-5.23L33.44,9z M21.28,91l0.13-0.98c1.01-7.6,3.18-14.97,6.44-21.9c1.91-4.05,4.19-7.95,6.79-11.59L40.03,49h1.48l-3.46,15.57c-0.24,1.08,0.44,2.15,1.52,2.39C39.71,66.98,39.86,67,40,67c0.92,0,1.74-0.63,1.95-1.57L45.6,49H48v28c0,1.1,0.9,2,2,2s2-0.9,2-2V49h2.4l3.65,16.43C58.26,66.37,59.08,67,60,67c0.14,0,0.29-0.02,0.44-0.05c1.08-0.24,1.76-1.31,1.52-2.39L58.49,49h1.48l5.38,7.52c2.6,3.64,4.89,7.54,6.79,11.59c3.26,6.94,5.43,14.3,6.45,21.9L78.72,91H21.28z"/></svg>