<svg version="1.1" id="Capa_1" xmlns="http://www.w3.org/2000/svg" xmlns:xlink="http://www.w3.org/1999/xlink" x="0px" y="0px" viewBox="0 0 1200 1200" enable-background="new 0 0 1200 1200" xml:space="preserve">
<path fill="#232323" d="M501.696,200.007c-0.525-3.254-1.517-6.313-2.872-9.143l39.316-18.487l22.145-22.142&#10;&#9;c4.849-4.852,7.522-11.303,7.522-18.165v-25.095c0-6.439-2.555-12.445-7.195-16.913c-4.636-4.463-10.768-6.829-17.204-6.539&#10;&#9;c-12.231,0.465-22.342,10.808-22.541,23.057c-0.046,2.96,0.445,5.847,1.456,8.573c3.223,8.673-1.194,18.317-9.869,21.54&#10;&#9;c-8.668,3.226-18.317-1.196-21.537-9.869c-2.47-6.644-3.665-13.636-3.55-20.782c0.484-29.753,25.054-54.871,54.764-56.001&#10;&#9;c15.631-0.574,30.46,5.047,41.715,15.884c11.262,10.842,17.466,25.421,17.466,41.051v25.095c0,15.809-6.158,30.674-17.335,41.856&#10;&#9;l-7.702,7.701l26.68,13.194c-0.061,0.216-0.139,0.42-0.197,0.638c-1.485,4.064-7.492,17.133-24.478,24.539l-30.548-15.106&#10;&#9;l-29.408,13.828c-4.232-2.224-7.834-4.971-10.677-8.327C503.425,205.406,501.703,200.049,501.696,200.007z M198.436,391.415&#10;&#9;c-4.771,7.963-4.505,17.958,0.695,25.647c21.003,31.06,69.649,52.41,96.455,62.284c2.697,0.993,5.476,1.469,8.218,1.469&#10;&#9;c8.082,0,15.852-4.132,20.314-11.33l19.22-31.007c20.49,94.29,5.593,313.301,0.113,383.075c-0.98,12.483,7.859,23.556,20.231,25.492&#10;&#9;c53.899,8.432,102.804,11.175,145.247,12.444l12.217-139.64c0.462-5.283,1.653-10.323,3.468-15.025&#10;&#9;c-21-2.508-38.231-17.772-42.952-38.894c-5.171-23.14,6.203-46.349,27.663-56.441l175.159-82.359&#10;&#9;c-8.845-5.769-15.879-14.283-19.698-24.567c-3.933-10.58-5.832-21.689-5.645-33.006c0.764-47.248,39.791-87.141,86.993-88.928&#10;&#9;c1.174-0.045,2.347-0.067,3.516-0.067c23.494,0,45.763,8.98,62.709,25.291c16.306,15.7,25.906,36.338,27.477,58.669&#10;&#9;c24.181-11.94,50.262-28.743,63.355-49.895c4.119-6.654,4.547-14.933,1.358-22.078c-16.063-35.989-75.132-155.557-156.455-169.556&#10;&#9;l-2.14-0.486L634.788,205.34c0,0-15.984,53.419-84.277,53.419c-73.281,0-81.893-53.419-81.893-53.419l-113.826,17.166l-2.14,0.486&#10;&#9;C284.703,254.495,219.028,357.05,198.436,391.415z M970.298,742.674c-4.3,5.313-10.867,8.716-18.234,8.716h-30.263&#10;&#9;c-12.953,0-23.454-10.501-23.454-23.454v-22.708H625.685v22.708c0,12.953-10.501,23.454-23.454,23.454h-30.263&#10;&#9;c-7.878,0-14.833-3.898-19.086-9.856l-33.768,385.976c-1.058,12.089,8.471,22.489,20.607,22.489h175.541&#10;&#9;c10.726,0,19.672-8.198,20.607-18.883l15.372-175.704c0.55-6.291,5.424-9.437,10.298-9.437c4.874,0,9.748,3.146,10.298,9.437&#10;&#9;l15.372,175.704c0.935,10.685,9.882,18.883,20.607,18.883h175.542c12.136,0,21.665-10.399,20.607-22.489L970.298,742.674z&#10;&#9; M781.547,545.696l214.09,94.255c6.976,3.452,10.657,11.253,8.887,18.831c-1.773,7.581-8.53,12.941-16.314,12.941h-14.162&#10;&#9;c-3.305-8.949-11.886-15.341-21.983-15.341h-30.263c-10.097,0-18.678,6.392-21.983,15.341H624.214&#10;&#9;c-3.305-8.949-11.886-15.341-21.983-15.341h-30.263c-10.097,0-18.678,6.392-21.983,15.341h-19.274&#10;&#9;c-7.846,0-14.639-5.445-16.351-13.101c-1.711-7.657,2.124-15.474,9.221-18.811l219.833-103.364l22.139-22.142&#10;&#9;c4.856-4.852,7.526-11.302,7.526-18.167v-25.097c0-6.439-2.555-12.444-7.195-16.91c-4.473-4.305-10.317-6.55-16.523-6.55&#10;&#9;c-0.227,0-0.454,0.003-0.681,0.009c-12.231,0.465-22.338,10.808-22.538,23.055c-0.049,2.961,0.442,5.844,1.456,8.576&#10;&#9;c3.223,8.671-1.194,18.314-9.869,21.537c-1.922,0.716-3.892,1.055-5.83,1.055c-6.799,0-13.201-4.176-15.706-10.924&#10;&#9;c-2.474-6.655-3.668-13.651-3.55-20.791c0.481-29.743,25.048-54.863,54.764-55.988c0.749-0.029,1.497-0.043,2.242-0.043&#10;&#9;c14.802-0.001,28.754,5.608,39.47,15.922c11.262,10.844,17.466,25.421,17.466,41.051v25.097c0,15.817-6.158,30.682-17.339,41.859&#10;&#9;L781.547,545.696z M753.008,568.96l-147.295,69.256h310.825L753.008,568.96z M571.968,727.936h30.263v-48.101h-30.263V727.936z&#10;&#9; M921.801,727.936h30.263v-48.101h-30.263V727.936z" style="fill: rgb(111, 96, 89);"/>
</svg>