<svg xmlns="http://www.w3.org/2000/svg" viewBox="0 0 50 50"><path d="M45.8481,10.4702l-5-8A1.00066,1.00066,0,0,0,40,2H10a1.00066,1.00066,0,0,0-.8481.4702l-5,8A.9996.9996,0,0,0,4,11V35a3.00328,3.00328,0,0,0,3,3H21v3a1.00126,1.00126,0,0,1-1,1H13.5859a3.00019,3.00019,0,0,0-2.9038,2.2456l-.6499,2.5029A.99994.99994,0,0,0,11,48H39a.99994.99994,0,0,0,.9678-1.2515l-.6499-2.5029A3.00019,3.00019,0,0,0,36.4141,42H30a1.00126,1.00126,0,0,1-1-1V38H43a3.00328,3.00328,0,0,0,3-3V11A.9996.9996,0,0,0,45.8481,10.4702ZM39.4458,4l4.5292,7.2467A2.99228,2.99228,0,0,1,38,11a1,1,0,0,0-.1055-.4473L34.6182,4Zm-7.064,0,3.5983,7.1966A2.99306,2.99306,0,0,1,30,11a1.02125,1.02125,0,0,0-.0298-.2427L28.2809,4ZM23.7809,4h2.4382l1.772,7.0883a2.99218,2.99218,0,0,1-5.9822,0ZM21.7191,4l-1.6893,6.7573A1.02125,1.02125,0,0,0,20,11a2.99306,2.99306,0,0,1-5.9801.1966L17.6182,4ZM10.5542,4h4.8276l-3.2763,6.5527A1,1,0,0,0,12,11a2.99228,2.99228,0,0,1-5.975.2467ZM30,44h6.4141a1.00034,1.00034,0,0,1,.9682.7485L37.707,46H12.293l.3247-1.2515A1.00034,1.00034,0,0,1,13.5859,44H20a3.00328,3.00328,0,0,0,3-3V38h4v3A3.00328,3.00328,0,0,0,30,44Zm14-9a1.00126,1.00126,0,0,1-1,1H7a1.00126,1.00126,0,0,1-1-1V14.9835A4.92971,4.92971,0,0,0,9,16a4.98989,4.98989,0,0,0,4.0104-2.0284,4.95257,4.95257,0,0,0,7.9989-.0063,4.93087,4.93087,0,0,0,7.9814,0,4.96025,4.96025,0,0,0,8.0031.0112A4.95451,4.95451,0,0,0,44,14.9796ZM32.314,18.4546l-4.2685,1.5882c-.7413-.4873-1.8062-1.8638-2.6817-.8055a1.00046,1.00046,0,0,0,.1811,1.4028l1.3464,1.0387-.4455,4.4272a2.21616,2.21616,0,0,0,.8364,1.976l8.0445,6.3326a1.59818,1.59818,0,0,0,2.2578-.2857l5.1777-6.7578v-.0005a1.6211,1.6211,0,0,0-.2817-2.251l-8.0435-6.331A2.17632,2.17632,0,0,0,32.314,18.4546Zm3.9292,14.1362L28.519,26.5103a.2278.2278,0,0,1-.083-.2032l.3208-3.1891,1.459,1.1257a1.0002,1.0002,0,1,0,1.2217-1.584l-1.526-1.1773,3.1002-1.1538a.1927.1927,0,0,1,.1875.0308l7.7446,6.0962Zm-4.0513-6.4355,1.5259-2.0166a1,1,0,1,1,1.5947,1.207l-1.5259,2.0166a1,1,0,1,1-1.5947-1.207Zm2.8198,2.1338,1.5259-2.0166a1,1,0,1,1,1.5947,1.207l-1.5259,2.0166a1,1,0,0,1-1.5947-1.207ZM8,20a1.00011,1.00011,0,0,1,1-1h8a1,1,0,0,1,0,2H9A1.00011,1.00011,0,0,1,8,20Zm0,4a1.00011,1.00011,0,0,1,1-1H22a1,1,0,0,1,0,2H9A1.00011,1.00011,0,0,1,8,24Zm0,4a1.00011,1.00011,0,0,1,1-1H22a1,1,0,0,1,0,2H9A1.00011,1.00011,0,0,1,8,28Zm19,4a1.00011,1.00011,0,0,1-1,1H9a1,1,0,0,1,0-2H26A1.00011,1.00011,0,0,1,27,32Z"/></svg>