<svg xmlns="http://www.w3.org/2000/svg" width="64" height="64"><path d="M 5.03125,4 C 4.435263,4 4,4.52125 4,5.09375 l 0,2.8125 -1.84375,2.65625 c -0.0073,0.01 0.0067,0.02125 0,0.03125 -3.255e-4,0.01041 -3.255e-4,0.02084 0,0.03125 C 2.14892,10.637 2.131593,10.64401 2.125,10.65625 2.0423963,10.749827 1.9967985,10.875221 2,11 c 0.00245,0.0419 0.027188,0.08348 0.03125,0.125 0.00545,0.08616 0.00337,0.172178 0.03125,0.25 C 2.2523731,12.453766 2.9835796,13.347814 4,13.75 l 0,9.59375 C 3.99183,23.39541 3.99183,23.448345 4,23.5 3.99707,23.53116 3.99707,23.56259 4,23.59375 l 0,2.3125 c 0,0.5724 0.435263,1.125 1.03125,1.125 L 15,27.03125 15,29 10.34375,29 c -0.260112,0 -0.494345,0.1423 -0.625,0.3125 -0.130655,0.1703 -0.1875,0.37985 -0.1875,0.59375 l 0,0.5 0,0.6875 0,0.40625 c 2.62e-5,0.261792 0.2382078,0.499974 0.5,0.5 l 0.3125,0 16.3125,0 0.3125,0 c 0.261792,-2.6e-5 0.499974,-0.238208 0.5,-0.5 l 0,-0.40625 0,-0.6875 0,-0.5 c 0,-0.2139 -0.05685,-0.42345 -0.1875,-0.59375 C 27.150603,29.1423 26.916367,29 26.65625,29 L 22,29 l 0,-1.96875 8.96875,0 c 0.595987,0 1.03125,-0.5526 1.03125,-1.125 l 0,-2.3125 0,-0.0625 c 0.0029,-0.03116 0.0029,-0.06259 0,-0.09375 l 0,-9.3125 c 0.0017,-0.06373 -0.009,-0.127756 -0.03125,-0.1875 1.077522,-0.379265 1.890799,-1.392024 2.03125,-2.625 0.0017,-0.06373 -0.009,-0.127756 -0.03125,-0.1875 5.99e-4,-0.0095 -3e-4,-0.02175 0,-0.03125 C 33.96145,11.06157 33.95098,11.03012 33.9375,11 c -0.0033,-0.04788 0.01166,-0.108865 0,-0.15625 -0.02125,-0.08635 -0.04153,-0.171625 -0.09375,-0.25 l 0,-0.03125 L 32,7.90625 32,5.09375 C 32,4.52125 31.564737,4 30.96875,4 z m 0,1 25.9375,0 C 30.968523,5 31,4.99975 31,5.09375 L 31,6.4375 30.96875,6.40625 C 30.749345,6.11015 30.430671,5.9974 30.09375,6 L 28.5,6 26.3125,6 16.40625,6 12.59375,6 5.90625,6 C 5.569329,6 5.250655,6.11015 5.03125,6.40625 L 5,6.4375 5,5.09375 C 5,5.00475 5.03148,5 5.03125,5 z m 0.875,2 2.375,0 -0.84375,4 -0.625,0 -3.75,0 2.78125,-3.96875 C 5.85835,7.0259625 5.88655,6.99985 5.90625,7 z m 3.40625,0 2.71875,0 -0.375,4 -3.21875,0 z m 3.75,0 2.78125,0 -0.40625,4 -2.75,0 z m 3.8125,0 2.25,0 0.40625,4 -3.0625,0 z m 3.28125,0 2.78125,0 0.375,4 -2.75,0 z m 3.8125,0 2.34375,0 0.375,0 0.875,4 -3.21875,0 z m 3.75,0 0.78125,0 1.59375,0 c 0.0197,-1.5e-4 0.0479,0.025963 0.0625,0.03125 l 0.875,1.25 c 0.03561,0.074069 0.08982,0.1391118 0.15625,0.1875 l 1.75,2.53125 -3.75,0 -0.625,0 z m -24.375,5 3.5625,0 C 6.4028461,12.794942 5.4296125,13.189802 4.5,12.90625 4.006368,12.755715 3.6090882,12.427629 3.34375,12 z m 4.96875,0 3.125,0 C 11.138755,12.591538 10.556722,13 9.875,13 9.1981276,13 8.6064797,12.606338 8.3125,12 z m 4.1875,0 0.0625,0 3,0 c 0.0072,0.03144 0.02294,0.06276 0.03125,0.09375 -0.354339,0.656192 -1.092926,1.01484 -1.84375,0.875 C 13.19668,12.865625 12.736146,12.506944 12.5,12 z m 4.1875,0 2.8125,0 c -0.213111,0.596301 -0.768928,1 -1.4375,1 -0.627749,0 -1.165617,-0.380896 -1.40625,-0.9375 0.0065,-0.02075 0.02527,-0.04151 0.03125,-0.0625 z m 3.9375,0 2.875,0 c -0.213111,0.596301 -0.768928,1 -1.4375,1 -0.637952,0 -1.204695,-0.405396 -1.4375,-1 z m 4,0 2.875,0 c -0.221495,0.596301 -0.800194,1 -1.46875,1 -0.637952,0 -1.17552,-0.405396 -1.40625,-1 z m 4.625,0 3.5,0 c -0.388078,0.742049 -1.160121,1.167004 -2,1.0625 C 30.105342,12.982336 29.56552,12.582032 29.25,12 z m -0.90625,0.5 C 28.513464,12.813064 28.74198,13.078694 29,13.3125 L 29,21 7,21 7,13.34375 C 7.2200747,13.175438 7.4226557,12.97345 7.59375,12.75 8.0903603,13.512815 8.9285966,14 9.875,14 c 0.83539,0 1.582383,-0.394976 2.09375,-1 0.391472,0.484685 0.95073,0.817708 1.59375,0.9375 0.970833,0.180869 1.914473,-0.178394 2.53125,-0.875 C 16.565749,13.640231 17.278685,14 18.0625,14 c 0.819584,0 1.53779,-0.389734 2,-1 0.472526,0.617101 1.199398,1 2,1 0.803795,0 1.505502,-0.378377 1.96875,-0.96875 0.473009,0.606038 1.207686,0.96875 2,0.96875 1.025659,0 1.905346,-0.616373 2.3125,-1.5 z M 6,13.84375 6,21.5 c 2.61e-5,0.261792 0.2382078,0.499974 0.5,0.5 l 23,0 c 0.261792,-2.6e-5 0.499974,-0.238208 0.5,-0.5 l 0,-7.59375 c 0.203462,0.0737 0.404299,0.128794 0.625,0.15625 0.125249,0.01558 0.251982,0.0317 0.375,0.03125 -3.26e-4,0.01041 -3.26e-4,0.02084 0,0.03125 L 31,23 30.96875,23 5.03125,23 5,23 5,13.96875 c 0.3405086,0.01312 0.6804276,-0.03033 1,-0.125 z M 8.34375,15 C 8.1372266,15.067661 7.9892205,15.282943 8,15.5 l 0,4 c 2.62e-5,0.261792 0.2382078,0.499974 0.5,0.5 l 4,0 c 0.261792,-2.6e-5 0.499974,-0.238208 0.5,-0.5 l 0,-4 c -2.6e-5,-0.261792 -0.238208,-0.499974 -0.5,-0.5 l -4,0 C 8.448345,14.9918 8.3954054,14.9918 8.34375,15 z M 14,15 l 0,1 3,0 0,-1 z m -5,1 3,0 0,3 -3,0 z m 5,1 0,1 7,0 0,-1 z m 0,2 0,1 7,0 0,-1 z M 5,24 5.03125,24 31,24.03125 l 0,1.875 c 0,0.09 -0.03146,0.125 -0.03125,0.125 L 22,26.015625 c -0.07478,-0.08372 -0.362109,0.0086 -0.5,0 l -6,0 -0.5,0 0,0 -9.96875,0.01563 C 5.031457,26.03125 5,25.99625 5,25.90625 z m 11,3.03125 5,0 L 21,29 16,29 z M 10.53125,30 l 15.9375,0 0,0.40625 0,0.59375 -15.9375,0 0,-0.59375 z" style="text-indent:0;text-align:start;line-height:normal;text-transform:none;block-progression:tb;marker:none;-inkscape-font-specification:Sans" color="#000" enable-background="accumulate" font-family="Sans" font-weight="400" overflow="visible"/></svg>