<svg version="1.1" id="Layer_1" xmlns="http://www.w3.org/2000/svg" xmlns:xlink="http://www.w3.org/1999/xlink" x="0px" y="0px" viewBox="0 0 1200 1200" enable-background="new 0 0 1200 1200" xml:space="preserve">
<g>
	<path fill="#443D3F" d="M1137.988,793.728h-14.859c-0.081,18.287-0.009,38.684,0.142,58.793h14.764&#10;&#9;&#9;c6.607,0,11.965-5.357,11.965-11.965V805.74C1150,799.106,1144.621,793.728,1137.988,793.728z" style="fill: rgb(111, 96, 89);"/>
	<path fill="#443D3F" d="M884.884,182.053c0.503-12.511,0.251-16.628-9.9-18.423c-13.265-2.345-15.47,5.989-16.85,14.741&#10;&#9;&#9;c-1.39,8.807-6.528,79.338-7.171,107.064c9.745,1.031,19.217,2.061,28.412,3.085C881.105,266.151,884.457,192.676,884.884,182.053z&#10;&#9;&#9;" style="fill: rgb(111, 96, 89);"/>
	<path fill="#443D3F" d="M1074.068,495.419c2.217-16.481,6.072-99.997,6.286-125.232c0.113-13.36-6.063-36.184-21.44-40.411&#10;&#9;&#9;c-0.573,31.649-7.589,120.249-15.275,207.624C1059.247,532.673,1072.259,508.861,1074.068,495.419z" style="fill: rgb(111, 96, 89);"/>
	<path fill="#443D3F" d="M273.834,440.738c-0.779,1.158-2.171,1.989-3.925,2.541c0.154,15.034,0.119,30.07-0.253,45.099&#10;&#9;&#9;c-0.055,2.23,0.925,17.817-1.108,26.034c4.858-1.364,13.338-2.028,18.853-0.636c-0.294-3.894,0.125-8.719-0.03-11.145&#10;&#9;&#9;c-0.634-9.897-1.17-19.802-1.626-29.709c-1.03-22.341-1.691-44.702-2.065-67.063c-0.363-21.716-0.488-43.435-0.245-65.153&#10;&#9;&#9;c0.105-9.406,0.297-18.809,0.48-28.213c0.012-0.547-0.116-2.147-0.2-3.872c-5.222,2.071-14.307,1.098-19.717-1.375&#10;&#9;&#9;c2.99,39.153,4.885,78.373,5.646,117.635c0.052,2.676,0.084,5.352,0.126,8.029C274.245,433.98,276.775,436.362,273.834,440.738z" style="fill: rgb(111, 96, 89);"/>
	<path fill="#443D3F" d="M905.47,535.349c4.096-2.17,21.391-9.911,22.798-15.11c2.115-7.829-12.128-0.389-14.842,0.997&#10;&#9;&#9;c-6.964,3.555-15.919,8.881-19.353,16.255C892.795,542.687,904.905,535.649,905.47,535.349z" style="fill: rgb(111, 96, 89);"/>
	<path fill="#443D3F" d="M1113.908,855.641c-0.151-20.109-0.223-40.505-0.142-58.793c0.085-19.168,0.338-36.014,0.849-47.685&#10;&#9;&#9;c0.262-5.973-4.447-10.966-10.426-10.991c-15.697-0.066-47.158-0.189-88.862-0.308c3.445-29.371,11.509-112.766,18.949-197.344&#10;&#9;&#9;c7.686-87.375,14.702-175.975,15.275-207.624c0.026-1.381,0.043-2.693,0.043-3.851c-0.844-5.458-5.067-9.756-10.516-10.665&#10;&#9;&#9;c-23.26-3.881-80.993-12.46-159.704-21.583c-9.195-1.066-18.667-2.138-28.412-3.212c-86.84-9.568-194.716-19.2-308.464-24.211&#10;&#9;&#9;c-27.849-1.227-97.106-2.65-168.553-3.803c-0.079-0.001-0.158-0.002-0.238-0.004c-0.282-3.191-0.647-5.907-0.993-8.016&#10;&#9;&#9;c-0.498-3.044-2.598-5.253-5.085-5.29c-5.746-0.085-14.752-0.001-20.099,0.064c-2.802,0.034-5.115,2.801-5.184,6.3&#10;&#9;&#9;c-0.037,1.946,0.024,4.154,0.138,6.457c-14.187-0.211-28.229-0.41-41.824-0.591c-0.005,0-0.011,0-0.018,0&#10;&#9;&#9;c-0.165-16.775-1.854-26.623-17.196-25.345c-3.49,0.29-15.532-0.474-17.352,2.937c-1.878,3.52-1.579,13.785-1.092,21.961&#10;&#9;&#9;c-35.653-0.418-65.391-0.67-82.04-0.67h-41.87c-14.025,0-37.142,17.06-37.609,38.176c-0.515,23.207,39.74,180.133,68.781,229.303&#10;&#9;&#9;c26.949,8.706,83.644,26.807,120.179,38.097c0.011,0.003,0.02,0.006,0.03,0.009c0.088,9.15,0.251,24.076,0.376,39.183&#10;&#9;&#9;c-3.869-1.282-10.408-1.146-15.039-0.49c-3.4-8.42-16.857-8.639-17.62,2.429c-0.861,12.465,15.47,14.683,18.031,4.347&#10;&#9;&#9;c4.686,1.827,10.968,2.828,14.684,1.078c0.099,13.649,0.151,26.673,0.07,34.824c-0.02,1.96,1.41,3.578,3.229,3.65l2.47,0.097&#10;&#9;&#9;c-0.213,4.093-0.357,8.189-0.44,12.28c-0.198,9.645-0.082,19.305,0.472,28.937c0.119,2.051-0.198,7.704,0.203,11.94&#10;&#9;&#9;c-5.765-1.444-14.953-0.25-17.929,1.91c-6.918,5.873,16.299,13.689,21.532,5.82c0.148-0.221,0.262-0.429,0.381-0.639&#10;&#9;&#9;c4.501,3.908,17.039,6.155,20.703,0.639c5.952-8.963-10.525-9.586-18.275-7.12c0.04-0.261,0.081-0.516,0.125-0.758&#10;&#9;&#9;c1.682-9.079,1.655-18.88,1.905-28.06c0.221-8.161,0.279-16.395-0.024-24.609l1.801,0.071c1.883,0.074,3.444-1.52,3.464-3.549&#10;&#9;&#9;c0.229-22.693,1.4-47.259,1.205-75.542c6.299,1.602,12.86-1.61,15.324-7.683c2.446-6.019,4.997-13.36,7.086-19.047&#10;&#9;&#9;c-0.21-0.101-0.428-0.169-0.638-0.274c-14.885-7.512-24.073-23.775-23.415-41.439c0.542-14.556,7.732-27.039,19.724-34.253&#10;&#9;&#9;c5.888-3.543,12.678-5.693,19.685-6.33c-0.981-6.663-1.501-13.397-1.492-20.093c0.003-2.857,0.251-17.839,3.349-23.141&#10;&#9;&#9;c-0.643-0.976-0.206-2.026,2.499-3.008c11.602-3.653,23.769-5.836,35.933-6.237c1.484-0.049,5.035-0.188,8.856-0.036&#10;&#9;&#9;c5.618-10.548,11.516-21.38,22.732-26.616c15.31-7.147,36.963-5.198,53.439-5.693c43.104-1.295,86.279-0.381,129.386,0.25&#10;&#9;&#9;c88.271,1.294,176.498,4.984,264.687,8.854c20.427,0.897,40.845,1.976,61.265,3.017c7.807,0.398,15.615,0.791,23.421,1.198&#10;&#9;&#9;c5.431,0.283,18.062-1.582,22.723,1.131c4.274,2.487,3.64,4.069-0.386,5.991c-5.574,2.661-18.714-0.046-24.899-0.126&#10;&#9;&#9;c-18.231-0.235-36.461-0.637-54.688-0.955c-87.522-1.528-175.023-4.253-262.535-6.209c-49.38-1.104-98.744-2.245-148.137-2.204&#10;&#9;&#9;c-18.466,0.015-46.882-4.282-63.568,5.152c-6.892,3.897-11.426,10.58-15.834,17.048c1.76,0.38,3.255,0.914,4.238,1.653&#10;&#9;&#9;c0.721,0.214,1.559,0.908,2.542,2.32c3.749,16.049,4.453,33.044,4.227,49.464c-0.111,8.157,0,17.019-1.673,25.042&#10;&#9;&#9;c-0.933,4.469-1.88,9.91-6.737,4.916c-2.68-2.755-2.257-13.166-2.658-16.864c-1.022-9.418-1.451-18.897-1.46-28.368&#10;&#9;&#9;c-0.009-9.208,0.314-18.459,1.542-27.595c0.047-0.347,0.108-0.802,0.183-1.307c-7.615,2.879-22.531,2.917-27.999,3.298&#10;&#9;&#9;c-6.182,0.43-12.963,0.851-19.101-0.301c-0.198-0.037-0.634-0.149-1.186-0.311c0.6,3.268,0.637,7.595,0.887,9.468&#10;&#9;&#9;c1.053,7.917,1.73,15.899,1.893,23.885c0.041,1.971,0.174,4.338,0.258,6.803c0.521,0.086,1.051,0.131,1.566,0.234&#10;&#9;&#9;c11.627,2.344,21.276,8.978,27.179,18.688c4.703,7.738,6.699,17.113,5.752,26.558c70.379-2.387,186.121-5.19,231.121,3.806&#10;&#9;&#9;c8.978,1.795,17.381,6.042,23.665,12.7c4.099,4.343,7.259,9.427,9.253,15.015c14.089,39.486,21.791,163.541,21.087,193.913&#10;&#9;&#9;c-255.17,0.635-562.652,3.061-622.527,3.547c-5.762,0.047-10.38,4.727-10.365,10.489c0.146,56.465,1.365,146.754,1.502,203.108&#10;&#9;&#9;c0.012,5.499,4.259,10.053,9.745,10.453c0.204,0.04,0.48,0.078,0.779,0.117c2.104,13.559,6.237,41.04,12.416,41.186&#10;&#9;&#9;c7.131,0.168,16.991,0.321,29.187,0.458c2.213,10.876,4.232,20.781,7.122,27.814c0.478,1.165,1.647,1.889,2.906,1.889&#10;&#9;&#9;c11.688,0,12.881-0.002,23.741-0.024c1.17-0.002,2.246-0.628,2.802-1.656c2.429-4.482,9.464-17.223,16.457-27.597&#10;&#9;&#9;c2.863,0.017,5.765,0.034,8.732,0.049l839.715-0.641c4.38-0.023,8.64-0.046,12.783-0.07c7.138,10.487,14.423,23.682,16.904,28.259&#10;&#9;&#9;c0.558,1.029,1.632,1.654,2.802,1.656c10.859,0.023,12.053,0.024,23.741,0.024c1.257,0,2.424-0.722,2.903-1.886&#10;&#9;&#9;c2.947-7.164,4.986-17.31,7.247-28.427c4.984-0.045,9.522-0.09,13.535-0.134c6.988-0.078,11-25.703,12.157-42.546&#10;&#9;&#9;c2.782-0.013,5.317-0.023,7.508-0.033c5.854-0.026,10.542-4.818,10.443-10.672C1114.819,934.898,1114.208,895.89,1113.908,855.641z&#10;&#9;&#9; M292.433,523.023c-0.169,0.514-0.402,1.055-0.748,1.638c-3.871,6.523-24.067,3.453-26.938-2.094&#10;&#9;&#9;c-0.192-0.011-0.387-0.037-0.593-0.096c-5.53-1.597-4.498-42.568-4.774-47.584c-0.514-9.344-0.936-18.693-1.329-28.043&#10;&#9;&#9;c-7.676-1.163-14.289-4.669-10.1-8.834c1.681-1.086,5.451-1.998,9.661-2.429c-0.335-9.088-0.649-18.177-0.861-27.268&#10;&#9;&#9;c-0.501-21.583-0.75-43.174-0.358-64.761c0.171-9.391,0.416-18.789,0.957-28.167c0.079-1.348-0.386-7.929,0.622-9.2&#10;&#9;&#9;c0.442-0.559,1.245-1.335,2.111-1.891c0.198-0.326,0.436-0.654,0.766-0.987c4.166-2.611,22.138-4.46,26.373,0.352&#10;&#9;&#9;c1.132-0.409,2.185-0.037,2.528,2.273c6.696,41.869,6.342,85.684,6.738,127.967c0.198,21.185,0.037,42.389-0.731,63.562&#10;&#9;&#9;C295.695,499.113,295.54,518.649,292.433,523.023z M915.779,505.773c12.821,2.734,23.318,14.787,20.933,28.317&#10;&#9;&#9;c-2.485,14.097-16.962,21.263-30.056,20.505C875.192,553.824,884.034,499.004,915.779,505.773z M894.163,591.803&#10;&#9;&#9;c27.45-13.187,52.913,10.717,56.523,37.113c4.072,21.487-14.071,35.903-33.174,38.489c-23.939,3.24-45.562-10.909-46.181-35.786&#10;&#9;&#9;C870.929,615.489,879.368,598.91,894.163,591.803z M753.437,550.404c14.661-4.33,30.542-5.643,45.773-5.318&#10;&#9;&#9;c3.66,0.078,38.513,2.747,27.473,10.204c-2.636,1.781-12.162,0.879-14.97,1.095c-8.59,0.662-17.192,1.206-25.807,1.358&#10;&#9;&#9;c-7.637,0.135-15.298,0.036-22.914-0.592C763.194,557.168,743.129,553.726,753.437,550.404z M753.437,586.206&#10;&#9;&#9;c14.661-4.33,30.542-5.643,45.773-5.318c3.66,0.078,38.513,2.747,27.473,10.204c-2.636,1.781-12.162,0.878-14.97,1.095&#10;&#9;&#9;c-8.59,0.662-17.192,1.207-25.807,1.359c-7.637,0.135-15.298,0.036-22.914-0.592C763.194,592.97,743.129,589.529,753.437,586.206z&#10;&#9;&#9; M753.437,622.12c14.661-4.331,30.542-5.643,45.773-5.318c3.66,0.078,38.513,2.747,27.473,10.204&#10;&#9;&#9;c-2.636,1.78-12.162,0.878-14.97,1.095c-8.59,0.662-17.192,1.206-25.807,1.358c-7.637,0.135-15.298,0.036-22.914-0.592&#10;&#9;&#9;C763.194,628.883,743.129,625.44,753.437,622.12z M704.888,734.697c81.02-5.141,162.881-4.466,243.985-1.839&#10;&#9;&#9;c4.96,0.16,42.227-1.558,42.198,4.894c-0.024,5.836-37.55,4.358-42.198,4.51c-42.89,1.4-85.81,1.646-128.72,1.419&#10;&#9;&#9;c-25.289-0.133-50.586-0.61-75.862-1.471c-9.784-0.333-19.569-0.765-29.347-1.234c-1.969-0.094-7.909,0.706-9.795-0.536&#10;&#9;&#9;C703.39,739.282,700.048,735.02,704.888,734.697z M1059.649,963.777c-13.329,1.069-27.083,0.432-40.438,0.597&#10;&#9;&#9;c-28.332,0.351-56.665,0.732-84.997,0.991c-146.414,1.339-292.838,1.743-439.257,1.383c-79.533-0.196-159.06-0.61-238.593-1.179&#10;&#9;&#9;c-35.609-0.254-71.214-0.681-106.822-1.138c-14.649-0.187-29.296-0.398-43.944-0.628c-3.305-0.052-9.021,0.994-12.165-0.19&#10;&#9;&#9;c-2.217-0.836-7.881-5.646-1.577-5.752c270.306-4.244,540.692-3.984,811.018-2.02c32.145,0.234,64.287,0.593,96.431,0.998&#10;&#9;&#9;c12.212,0.154,24.421,0.29,36.631,0.475c5.37,0.081,22.87-2.7,27.869,0.422C1070.742,962.07,1063.926,963.434,1059.649,963.777z" style="fill: rgb(111, 96, 89);"/>
	<path fill="#443D3F" d="M384.335,487.267c-4.864-8.002-12.697-12.82-21.268-14.547c-3.247-0.654-6.595-0.859-9.935-0.624&#10;&#9;&#9;c-5.792,0.408-11.543,2.128-16.625,5.186c-10.088,6.069-14.982,16.348-15.375,26.887c-0.492,13.235,6.139,26.849,18.479,33.076&#10;&#9;&#9;c2.315,1.168,4.806,2.105,7.516,2.7c14.848,3.259,31.526-6.271,38.253-19.466c1.752-3.438,2.83-7.187,3.342-11.012&#10;&#9;&#9;C389.745,501.826,388.34,493.855,384.335,487.267z M345.328,510.989c-6.533-11.561,8.547-21.796,14.594-12.414&#10;&#9;&#9;C369.796,513.893,348.763,517.066,345.328,510.989z" style="fill: rgb(111, 96, 89);"/>
	<path fill="#443D3F" d="M932.861,649.891c4.053-0.492,3.031-4.938,0.579-6.283c0.526-0.282-38.665-52.875-43.574-39.823&#10;&#9;&#9;c-2.894,7.692,15.284,25.852,19.891,30.452C915.669,640.139,924.154,648.619,932.861,649.891z" style="fill: rgb(111, 96, 89);"/>
</g>
</svg>