<svg xmlns="http://www.w3.org/2000/svg" data-name="Layer 1" viewBox="0 0 128 128"><path d="M89,78A11,11,0,1,0,78,67,11.01245,11.01245,0,0,0,89,78Zm0-18a7,7,0,1,1-7,7A7.00786,7.00786,0,0,1,89,60Z"/><path d="M12 90h4v2a2 2 0 0 0 4 0V90h4v2a2 2 0 0 0 4 0V90h4v2a2 2 0 0 0 4 0V90h4v2a2 2 0 0 0 4 0V90h4v2a2 2 0 0 0 4 0V90h4v2a2 2 0 0 0 4 0V90h4v2a2 2 0 0 0 4 0V90h4v2a2 2 0 0 0 4 0V90h4v2a2 2 0 0 0 4 0V90h4v2a2 2 0 0 0 4 0V90h4v2a2 2 0 0 0 4 0V90h4v2a2 2 0 0 0 4 0V90h8v6h4V90a4.00458 4.00458 0 0 0-4-4h-6V50h4v8.46729a6 6 0 1 0 12 0v-29a6 6 0 1 0-12 0V38h-4.02777A13.69281 13.69281 0 0 0 104.894 27.75781a21.324 21.324 0 0 0-7.97357-3.91455A4.8902 4.8902 0 0 0 97 23V18a4.00458 4.00458 0 0 0-4-4H89a4.00458 4.00458 0 0 0-4 4v5c0 .15308.01611.30164.0307.45056a51.037 51.037 0 0 0-13.31781 4.09875 14.16379 14.16379 0 0 1-5.9707 1.32813H39.23633a13.6361 13.6361 0 0 1-8.55518-2.89307 21.31718 21.31718 0 0 1-5.67334-7.50928A4.26511 4.26511 0 0 0 21.14453 16H18V14a2 2 0 0 0-4 0v2H12.24609A4.24227 4.24227 0 0 0 8 20.229V62a3.82723 3.82723 0 0 0 4 4h2V78a2 2 0 0 0 4 0V66h4a3.82112 3.82112 0 0 0 4-3.97559c.06543-5.41064 2.01807-8.978 5.96826-10.90625a11.2552 11.2552 0 0 1 4.97559-1.0708H60.915a6.958 6.958 0 0 1 6.98486 6.915V86H12a4.00458 4.00458 0 0 0-4 4v6h4zM118 29.46729a2 2 0 1 1 4 0v29a2 2 0 1 1-4 0zM114 46h-4V42h4zM89 23V18h4v5a.94509.94509 0 0 1-.03394.16748 30.02993 30.02993 0 0 0-3.95251-.10052C89.0119 23.04364 89 23.02374 89 23zM49 46V32.87744h4V46c0 .01624.00439.03125.00476.04736H48.99524C48.99561 46.03125 49 46.01624 49 46zM30.21387 47.52344C24.84863 50.14209 22.085 55.00439 22 62H12V20.229A.23813.23813 0 0 1 12.24609 20h8.89844a.25063.25063 0 0 1 .22949.147 25.38938 25.38938 0 0 0 6.79785 8.95264 17.648 17.648 0 0 0 11.06445 3.77783H45V46c0 .01624.00439.03125.00476.04736H36.94385A15.21284 15.21284 0 0 0 30.21387 47.52344zM60.915 46.04736h-3.9198C56.99561 46.03125 57 46.01624 57 46V32.87744h8.74219a18.13568 18.13568 0 0 0 7.64648-1.69629c5.57373-2.57129 19.561-7.74756 29.02881-.28174A9.69517 9.69517 0 0 1 106 38.4917V86H71.8999V56.9624A10.9625 10.9625 0 0 0 60.915 46.04736zM124 100H4a4.00458 4.00458 0 0 0-4 4v8a4.00458 4.00458 0 0 0 4 4H124a4.00458 4.00458 0 0 0 4-4v-8A4.00458 4.00458 0 0 0 124 100zM4 112v-8H124l.00244 8z"/><circle cx="16" cy="38" r="2"/><circle cx="91" cy="38" r="2"/></svg>